<svg version="1.1" id="Layer_1" xmlns="http://www.w3.org/2000/svg" xmlns:xlink="http://www.w3.org/1999/xlink" x="0px" y="0px"
	 width="100%" viewBox="0 0 512 512" enable-background="new 0 0 512 512" xml:space="preserve">
<path fill="#FF4B55" opacity="1.000000" stroke="none" 
	d="
M513.000000,94.000000 
	C513.000000,202.354767 513.000000,310.709534 512.667358,419.664459 
	C510.572998,424.526276 507.030640,425.034790 502.976318,425.033813 
	C339.086578,424.994263 175.196793,424.983276 11.307108,425.086792 
	C6.727878,425.089691 3.431607,423.736481 1.000000,420.000000 
	C1.000000,311.645233 1.000000,203.290466 1.332607,94.335556 
	C3.426988,89.473831 6.969253,88.965179 11.023591,88.966164 
	C174.913376,89.005699 338.803162,89.016655 502.692902,88.913170 
	C507.272064,88.910278 510.568420,90.263496 513.000000,94.000000 
M328.992950,260.489319 
	C338.642456,253.362473 348.292206,246.235947 357.941101,239.108246 
	C358.879150,238.415298 360.117279,237.901382 360.680725,236.977768 
	C361.721405,235.271881 363.355255,233.010452 362.897583,231.564056 
	C362.432983,230.095734 359.845032,229.059357 357.989410,228.352295 
	C356.671722,227.850220 355.026215,228.193085 353.526886,228.185638 
	C332.365265,228.080399 311.203064,227.869659 290.042480,227.974472 
	C285.992188,227.994537 284.227722,226.680969 282.991455,222.850876 
	C276.495972,202.726578 269.710205,182.695984 263.025665,162.632706 
	C262.657227,161.526840 262.546967,160.222290 261.873352,159.354019 
	C260.446442,157.514679 258.726532,155.902603 257.126801,154.197311 
	C255.418777,155.981186 253.593597,157.671280 252.056305,159.591827 
	C251.373672,160.444656 251.275055,161.763672 250.906631,162.869507 
	C244.222305,182.932861 237.458054,202.970245 230.925812,223.082993 
	C229.758820,226.676117 228.042038,227.976181 224.211227,227.962769 
	C202.716965,227.887497 181.221741,228.079575 159.726929,228.197220 
	C158.064789,228.206314 156.359665,228.132309 154.749985,228.463562 
	C150.371429,229.364670 149.246429,232.993286 152.329971,236.176712 
	C153.362350,237.242508 154.648743,238.070023 155.853302,238.960068 
	C173.272980,251.831558 190.634872,264.783081 208.181793,277.478851 
	C211.312607,279.744080 211.876724,281.739410 210.716751,285.306030 
	C204.124832,305.574371 197.763199,325.917664 191.328720,346.237183 
	C190.876450,347.665375 190.048630,349.134918 190.140259,350.536530 
	C190.269669,352.516113 190.537964,355.080475 191.803650,356.197205 
	C192.753998,357.035767 195.548050,356.400330 197.195724,355.678192 
	C199.288956,354.760834 201.060547,353.102997 202.958023,351.746552 
	C219.764267,339.732208 236.619751,327.785461 253.320862,315.626678 
	C256.115997,313.591766 257.926514,313.627014 260.702179,315.646057 
	C277.677704,327.994171 294.800262,340.140289 311.882050,352.342194 
	C313.778503,353.696869 315.617218,355.193024 317.675446,356.247314 
	C321.477692,358.194885 324.451324,356.217438 324.111328,352.000916 
	C323.966522,350.205261 323.355225,348.426453 322.806000,346.687347 
	C316.287018,326.045044 309.803192,305.391144 303.133759,284.797394 
	C302.090424,281.575684 302.606903,279.746887 305.449371,277.767761 
	C313.239990,272.343384 320.780762,266.560120 328.992950,260.489319 
z"/>
<path fill="#FFFFFF" opacity="1.000000" stroke="none" 
	d="
M513.000000,93.531342 
	C510.568420,90.263496 507.272064,88.910278 502.692902,88.913170 
	C338.803162,89.016655 174.913376,89.005699 11.023591,88.966164 
	C6.969253,88.965179 3.426988,89.473831 1.332607,93.867706 
	C1.000000,63.019428 1.000000,32.038857 1.000003,1.059270 
	C171.666672,1.060254 342.333344,1.060254 513.000000,1.060254 
	C513.000000,31.767899 513.000000,62.415291 513.000000,93.531342 
z"/>
<path fill="#FFFFFF" opacity="1.000000" stroke="none" 
	d="
M1.000000,420.468658 
	C3.431607,423.736481 6.727878,425.089691 11.307108,425.086792 
	C175.196793,424.983276 339.086578,424.994263 502.976318,425.033813 
	C507.030640,425.034790 510.572998,424.526276 512.667358,420.132324 
	C513.000000,450.980560 513.000000,481.961090 513.000000,512.940796 
	C342.333313,512.939880 171.666656,512.939880 1.000000,512.939880 
	C1.000000,482.232269 1.000000,451.584808 1.000000,420.468658 
z"/>
<path fill="#FFE05A" opacity="1.000000" stroke="none" 
	d="
M328.706696,260.704102 
	C320.780762,266.560120 313.239990,272.343384 305.449371,277.767761 
	C302.606903,279.746887 302.090424,281.575684 303.133759,284.797394 
	C309.803192,305.391144 316.287018,326.045044 322.806000,346.687347 
	C323.355225,348.426453 323.966522,350.205261 324.111328,352.000916 
	C324.451324,356.217438 321.477692,358.194885 317.675446,356.247314 
	C315.617218,355.193024 313.778503,353.696869 311.882050,352.342194 
	C294.800262,340.140289 277.677704,327.994171 260.702179,315.646057 
	C257.926514,313.627014 256.115997,313.591766 253.320862,315.626678 
	C236.619751,327.785461 219.764267,339.732208 202.958023,351.746552 
	C201.060547,353.102997 199.288956,354.760834 197.195724,355.678192 
	C195.548050,356.400330 192.753998,357.035767 191.803650,356.197205 
	C190.537964,355.080475 190.269669,352.516113 190.140259,350.536530 
	C190.048630,349.134918 190.876450,347.665375 191.328720,346.237183 
	C197.763199,325.917664 204.124832,305.574371 210.716751,285.306030 
	C211.876724,281.739410 211.312607,279.744080 208.181793,277.478851 
	C190.634872,264.783081 173.272980,251.831558 155.853302,238.960068 
	C154.648743,238.070023 153.362350,237.242508 152.329971,236.176712 
	C149.246429,232.993286 150.371429,229.364670 154.749985,228.463562 
	C156.359665,228.132309 158.064789,228.206314 159.726929,228.197220 
	C181.221741,228.079575 202.716965,227.887497 224.211227,227.962769 
	C228.042038,227.976181 229.758820,226.676117 230.925812,223.082993 
	C237.458054,202.970245 244.222305,182.932861 250.906631,162.869507 
	C251.275055,161.763672 251.373672,160.444656 252.056305,159.591827 
	C253.593597,157.671280 255.418777,155.981186 257.126801,154.197311 
	C258.726532,155.902603 260.446442,157.514679 261.873352,159.354019 
	C262.546967,160.222290 262.657227,161.526840 263.025665,162.632706 
	C269.710205,182.695984 276.495972,202.726578 282.991455,222.850876 
	C284.227722,226.680969 285.992188,227.994537 290.042480,227.974472 
	C311.203064,227.869659 332.365265,228.080399 353.526886,228.185638 
	C355.026215,228.193085 356.671722,227.850220 357.989410,228.352295 
	C359.845032,229.059357 362.432983,230.095734 362.897583,231.564056 
	C363.355255,233.010452 361.721405,235.271881 360.680725,236.977768 
	C360.117279,237.901382 358.879150,238.415298 357.941101,239.108246 
	C348.292206,246.235947 338.642456,253.362473 328.706696,260.704102 
z"/>
</svg>